solid Cylinder
	facet normal 0.994522 -0.104528 0
		outer loop
			 vertex 120 0 50
			 vertex 119.563 -4.15823 50
			 vertex 119.563 -4.15823 0
		endloop
	endfacet
	facet normal 0.994522 -0.104528 0
		outer loop
			 vertex 119.563 -4.15823 0
			 vertex 120 0 0
			 vertex 120 0 50
		endloop
	endfacet
	facet normal 0.994522 0.104528 0
		outer loop
			 vertex 119.563 4.15823 50
			 vertex 120 0 50
			 vertex 120 0 0
		endloop
	endfacet
	facet normal 0.994522 0.104528 -0
		outer loop
			 vertex 120 0 0
			 vertex 119.563 4.15823 0
			 vertex 119.563 4.15823 50
		endloop
	endfacet
	facet normal 0.951057 0.309017 0
		outer loop
			 vertex 118.271 8.13473 50
			 vertex 119.563 4.15823 50
			 vertex 119.563 4.15823 0
		endloop
	endfacet
	facet normal 0.951057 0.309017 -0
		outer loop
			 vertex 119.563 4.15823 0
			 vertex 118.271 8.13473 0
			 vertex 118.271 8.13473 50
		endloop
	endfacet
	facet normal 0.866025 0.5 0
		outer loop
			 vertex 116.18 11.7557 50
			 vertex 118.271 8.13473 50
			 vertex 118.271 8.13473 0
		endloop
	endfacet
	facet normal 0.866025 0.5 -0
		outer loop
			 vertex 118.271 8.13473 0
			 vertex 116.18 11.7557 0
			 vertex 116.18 11.7557 50
		endloop
	endfacet
	facet normal 0.743145 0.669131 0
		outer loop
			 vertex 113.383 14.8629 50
			 vertex 116.18 11.7557 50
			 vertex 116.18 11.7557 0
		endloop
	endfacet
	facet normal 0.743145 0.669131 -0
		outer loop
			 vertex 116.18 11.7557 0
			 vertex 113.383 14.8629 0
			 vertex 113.383 14.8629 50
		endloop
	endfacet
	facet normal 0.587785 0.809017 0
		outer loop
			 vertex 110 17.3205 50
			 vertex 113.383 14.8629 50
			 vertex 113.383 14.8629 0
		endloop
	endfacet
	facet normal 0.587785 0.809017 -0
		outer loop
			 vertex 113.383 14.8629 0
			 vertex 110 17.3205 0
			 vertex 110 17.3205 50
		endloop
	endfacet
	facet normal 0.406737 0.913545 0
		outer loop
			 vertex 106.18 19.0211 50
			 vertex 110 17.3205 50
			 vertex 110 17.3205 0
		endloop
	endfacet
	facet normal 0.406737 0.913545 -0
		outer loop
			 vertex 110 17.3205 0
			 vertex 106.18 19.0211 0
			 vertex 106.18 19.0211 50
		endloop
	endfacet
	facet normal 0.207912 0.978148 0
		outer loop
			 vertex 102.091 19.8904 50
			 vertex 106.18 19.0211 50
			 vertex 106.18 19.0211 0
		endloop
	endfacet
	facet normal 0.207912 0.978148 -0
		outer loop
			 vertex 106.18 19.0211 0
			 vertex 102.091 19.8904 0
			 vertex 102.091 19.8904 50
		endloop
	endfacet
	facet normal -2.05103e-10 1 0
		outer loop
			 vertex 97.9094 19.8904 50
			 vertex 102.091 19.8904 50
			 vertex 102.091 19.8904 0
		endloop
	endfacet
	facet normal -2.05103e-10 1 0
		outer loop
			 vertex 102.091 19.8904 0
			 vertex 97.9094 19.8904 0
			 vertex 97.9094 19.8904 50
		endloop
	endfacet
	facet normal -0.207912 0.978148 0
		outer loop
			 vertex 93.8197 19.0211 50
			 vertex 97.9094 19.8904 50
			 vertex 97.9094 19.8904 0
		endloop
	endfacet
	facet normal -0.207912 0.978148 0
		outer loop
			 vertex 97.9094 19.8904 0
			 vertex 93.8197 19.0211 0
			 vertex 93.8197 19.0211 50
		endloop
	endfacet
	facet normal -0.406737 0.913545 0
		outer loop
			 vertex 90 17.3205 50
			 vertex 93.8197 19.0211 50
			 vertex 93.8197 19.0211 0
		endloop
	endfacet
	facet normal -0.406737 0.913545 0
		outer loop
			 vertex 93.8197 19.0211 0
			 vertex 90 17.3205 0
			 vertex 90 17.3205 50
		endloop
	endfacet
	facet normal -0.587785 0.809017 0
		outer loop
			 vertex 86.6174 14.8629 50
			 vertex 90 17.3205 50
			 vertex 90 17.3205 0
		endloop
	endfacet
	facet normal -0.587785 0.809017 0
		outer loop
			 vertex 90 17.3205 0
			 vertex 86.6174 14.8629 0
			 vertex 86.6174 14.8629 50
		endloop
	endfacet
	facet normal -0.743145 0.669131 0
		outer loop
			 vertex 83.8197 11.7557 50
			 vertex 86.6174 14.8629 50
			 vertex 86.6174 14.8629 0
		endloop
	endfacet
	facet normal -0.743145 0.669131 0
		outer loop
			 vertex 86.6174 14.8629 0
			 vertex 83.8197 11.7557 0
			 vertex 83.8197 11.7557 50
		endloop
	endfacet
	facet normal -0.866025 0.5 0
		outer loop
			 vertex 81.7291 8.13473 50
			 vertex 83.8197 11.7557 50
			 vertex 83.8197 11.7557 0
		endloop
	endfacet
	facet normal -0.866025 0.5 0
		outer loop
			 vertex 83.8197 11.7557 0
			 vertex 81.7291 8.13473 0
			 vertex 81.7291 8.13473 50
		endloop
	endfacet
	facet normal -0.951057 0.309017 0
		outer loop
			 vertex 80.437 4.15823 50
			 vertex 81.7291 8.13473 50
			 vertex 81.7291 8.13473 0
		endloop
	endfacet
	facet normal -0.951057 0.309017 0
		outer loop
			 vertex 81.7291 8.13473 0
			 vertex 80.437 4.15823 0
			 vertex 80.437 4.15823 50
		endloop
	endfacet
	facet normal -0.994522 0.104528 0
		outer loop
			 vertex 80 -8.20414e-09 50
			 vertex 80.437 4.15823 50
			 vertex 80.437 4.15823 0
		endloop
	endfacet
	facet normal -0.994522 0.104528 0
		outer loop
			 vertex 80.437 4.15823 0
			 vertex 80 -8.20414e-09 0
			 vertex 80 -8.20414e-09 50
		endloop
	endfacet
	facet normal -0.994522 -0.104528 -0
		outer loop
			 vertex 80.437 -4.15823 50
			 vertex 80 -8.20414e-09 50
			 vertex 80 -8.20414e-09 0
		endloop
	endfacet
	facet normal -0.994522 -0.104528 0
		outer loop
			 vertex 80 -8.20414e-09 0
			 vertex 80.437 -4.15823 0
			 vertex 80.437 -4.15823 50
		endloop
	endfacet
	facet normal -0.951057 -0.309017 -0
		outer loop
			 vertex 81.7291 -8.13473 50
			 vertex 80.437 -4.15823 50
			 vertex 80.437 -4.15823 0
		endloop
	endfacet
	facet normal -0.951057 -0.309017 0
		outer loop
			 vertex 80.437 -4.15823 0
			 vertex 81.7291 -8.13473 0
			 vertex 81.7291 -8.13473 50
		endloop
	endfacet
	facet normal -0.866025 -0.5 -0
		outer loop
			 vertex 83.8197 -11.7557 50
			 vertex 81.7291 -8.13473 50
			 vertex 81.7291 -8.13473 0
		endloop
	endfacet
	facet normal -0.866025 -0.5 0
		outer loop
			 vertex 81.7291 -8.13473 0
			 vertex 83.8197 -11.7557 0
			 vertex 83.8197 -11.7557 50
		endloop
	endfacet
	facet normal -0.743145 -0.669131 -0
		outer loop
			 vertex 86.6174 -14.8629 50
			 vertex 83.8197 -11.7557 50
			 vertex 83.8197 -11.7557 0
		endloop
	endfacet
	facet normal -0.743145 -0.669131 0
		outer loop
			 vertex 83.8197 -11.7557 0
			 vertex 86.6174 -14.8629 0
			 vertex 86.6174 -14.8629 50
		endloop
	endfacet
	facet normal -0.587785 -0.809017 -0
		outer loop
			 vertex 90 -17.3205 50
			 vertex 86.6174 -14.8629 50
			 vertex 86.6174 -14.8629 0
		endloop
	endfacet
	facet normal -0.587785 -0.809017 0
		outer loop
			 vertex 86.6174 -14.8629 0
			 vertex 90 -17.3205 0
			 vertex 90 -17.3205 50
		endloop
	endfacet
	facet normal -0.406737 -0.913545 -0
		outer loop
			 vertex 93.8197 -19.0211 50
			 vertex 90 -17.3205 50
			 vertex 90 -17.3205 0
		endloop
	endfacet
	facet normal -0.406737 -0.913545 0
		outer loop
			 vertex 90 -17.3205 0
			 vertex 93.8197 -19.0211 0
			 vertex 93.8197 -19.0211 50
		endloop
	endfacet
	facet normal -0.207912 -0.978148 -0
		outer loop
			 vertex 97.9094 -19.8904 50
			 vertex 93.8197 -19.0211 50
			 vertex 93.8197 -19.0211 0
		endloop
	endfacet
	facet normal -0.207912 -0.978148 0
		outer loop
			 vertex 93.8197 -19.0211 0
			 vertex 97.9094 -19.8904 0
			 vertex 97.9094 -19.8904 50
		endloop
	endfacet
	facet normal 6.15311e-10 -1 0
		outer loop
			 vertex 102.091 -19.8904 50
			 vertex 97.9094 -19.8904 50
			 vertex 97.9094 -19.8904 0
		endloop
	endfacet
	facet normal 6.15311e-10 -1 0
		outer loop
			 vertex 97.9094 -19.8904 0
			 vertex 102.091 -19.8904 0
			 vertex 102.091 -19.8904 50
		endloop
	endfacet
	facet normal 0.207912 -0.978148 0
		outer loop
			 vertex 106.18 -19.0211 50
			 vertex 102.091 -19.8904 50
			 vertex 102.091 -19.8904 0
		endloop
	endfacet
	facet normal 0.207912 -0.978148 0
		outer loop
			 vertex 102.091 -19.8904 0
			 vertex 106.18 -19.0211 0
			 vertex 106.18 -19.0211 50
		endloop
	endfacet
	facet normal 0.406737 -0.913545 0
		outer loop
			 vertex 110 -17.3205 50
			 vertex 106.18 -19.0211 50
			 vertex 106.18 -19.0211 0
		endloop
	endfacet
	facet normal 0.406737 -0.913545 0
		outer loop
			 vertex 106.18 -19.0211 0
			 vertex 110 -17.3205 0
			 vertex 110 -17.3205 50
		endloop
	endfacet
	facet normal 0.587785 -0.809017 0
		outer loop
			 vertex 113.383 -14.8629 50
			 vertex 110 -17.3205 50
			 vertex 110 -17.3205 0
		endloop
	endfacet
	facet normal 0.587785 -0.809017 0
		outer loop
			 vertex 110 -17.3205 0
			 vertex 113.383 -14.8629 0
			 vertex 113.383 -14.8629 50
		endloop
	endfacet
	facet normal 0.743145 -0.669131 0
		outer loop
			 vertex 116.18 -11.7557 50
			 vertex 113.383 -14.8629 50
			 vertex 113.383 -14.8629 0
		endloop
	endfacet
	facet normal 0.743145 -0.669131 0
		outer loop
			 vertex 113.383 -14.8629 0
			 vertex 116.18 -11.7557 0
			 vertex 116.18 -11.7557 50
		endloop
	endfacet
	facet normal 0.866025 -0.5 0
		outer loop
			 vertex 118.271 -8.13473 50
			 vertex 116.18 -11.7557 50
			 vertex 116.18 -11.7557 0
		endloop
	endfacet
	facet normal 0.866025 -0.5 0
		outer loop
			 vertex 116.18 -11.7557 0
			 vertex 118.271 -8.13473 0
			 vertex 118.271 -8.13473 50
		endloop
	endfacet
	facet normal 0.951057 -0.309017 0
		outer loop
			 vertex 119.563 -4.15823 50
			 vertex 118.271 -8.13473 50
			 vertex 118.271 -8.13473 0
		endloop
	endfacet
	facet normal 0.951057 -0.309017 0
		outer loop
			 vertex 118.271 -8.13473 0
			 vertex 119.563 -4.15823 0
			 vertex 119.563 -4.15823 50
		endloop
	endfacet
endsolid Cylinder
